<?xml version="1.0" encoding="utf-8"?>
<!-- Generator: Adobe Illustrator 17.0.0, SVG Export Plug-In . SVG Version: 6.00 Build 0)  -->
<!DOCTYPE svg PUBLIC "-//W3C//DTD SVG 1.1//EN" "http://www.w3.org/Graphics/SVG/1.1/DTD/svg11.dtd">
<svg version="1.1" id="Icon" xmlns="http://www.w3.org/2000/svg" xmlns:xlink="http://www.w3.org/1999/xlink" x="0px" y="0px" viewBox="282 372 48 48" enable-background="new 282 372 48 48" xml:space="preserve">
<linearGradient id="SVGID_1_" gradientUnits="userSpaceOnUse" x1="24.4641" y1="770.4226" x2="24.4641" y2="766.6569" gradientTransform="matrix(12.75 0 0 -12.75 -5.875 10194.875)">
	<stop  offset="0" style="stop-color:#4C6B4F"/>
	<stop  offset="1" style="stop-color:#48584A"/>
</linearGradient>
<path fill="url(#SVGID_1_)" d="M330.086,413.998c0,3.314-2.692,6.002-6.011,6.002h-36.064c-3.319,0-6.011-2.688-6.011-6.002v-36.01
	c0-3.314,2.692-6.002,6.011-6.002h36.064c3.319,0,6.011,2.688,6.011,6.002V413.998z"/>
<path fill="#48584A" d="M310.5,390.688c-2.188-0.438-5.125,0.5-5.125,0.5l4.688,8.438l15.688-4.25
	c-1.537-3.689-8.094-10.894-23.607-8.018l-1.518-2.795l-4.75,1.25l1.441,2.93c-10.842,4.652-7.441,16.445-7.441,16.445l19-5.438
	l-5.196-9.566c10.552-2.646,15.634,3.066,15.634,3.066l-6.062,1.375L310.5,390.688z M298.887,391.935l2.818,5.729L295,399.312
	C295,399.312,293.013,395.069,298.887,391.935z"/>
<path fill="#C0D931" d="M310.5,392.688c-2.188-0.438-5.053,0.33-5.053,0.33l4.658,8.42l15.646-4.062
	c-1.537-3.689-8.094-10.894-23.607-8.018l-1.518-2.795l-4.75,1.25l1.441,2.93c-10.842,4.652-7.441,16.445-7.441,16.445l19-5.438
	l-5.196-9.566c10.552-2.646,15.634,3.066,15.634,3.066l-6.062,1.375L310.5,392.688z M298.887,393.935l2.818,5.729L295,401.312
	C295,401.312,293.013,397.069,298.887,393.935z"/>
</svg>
