<svg xmlns="http://www.w3.org/2000/svg" version="1.1" id="Icon_1_" viewBox="616 376 48 48"><path id="UpperLeft" fill="#FFFFFF" d="M640 400.68h-24c0 0 0-14.345 0-18.957c0-3.075 3.12-5.723 5.7-5.723c4.833 0 18.3 0 18.3 0 V400.68z"/><path id="UpperRight" fill="#3274D1" d="M640 400.68h24c0 0 0-14.57 0-19.137c0-2.896-3.09-5.542-5.726-5.536 C653.32 376 640 376 640 376V400.68z"/><path id="DownLeft" fill="#020202" d="M640 400.68h-24c0 0 0-0.612 0 17.53c0 3.1 3.1 5.8 5.5 5.8 C626.14 424 640 424 640 424V400.68z"/><path id="DownRight" fill="#DDDDDD" d="M640 400.68h24c0 0 0 11.8 0 17.607c0 2.21-2.16 5.713-5.865 5.7 c-2.262 0-18.135 0-18.135 0V400.68z"/></svg>