<?xml version="1.0" encoding="utf-8"?>
<!-- Generator: Adobe Illustrator 17.0.0, SVG Export Plug-In . SVG Version: 6.00 Build 0)  -->
<!DOCTYPE svg PUBLIC "-//W3C//DTD SVG 1.1//EN" "http://www.w3.org/Graphics/SVG/1.1/DTD/svg11.dtd">
<svg version="1.1" id="Icon" xmlns="http://www.w3.org/2000/svg" xmlns:xlink="http://www.w3.org/1999/xlink" x="0px" y="0px" viewBox="282 372 48 48" enable-background="new 282 372 48 48" xml:space="preserve">
<linearGradient id="SVGID_1_" gradientUnits="userSpaceOnUse" x1="24.4641" y1="770.4226" x2="24.4641" y2="766.6569" gradientTransform="matrix(12.75 0 0 -12.75 -5.875 10194.875)">
	<stop  offset="0" style="stop-color:#FFFFFF"/>
	<stop  offset="1" style="stop-color:#EAEAEA"/>
</linearGradient>
<path fill="url(#SVGID_1_)" d="M330.086,413.998c0,3.314-2.692,6.002-6.011,6.002h-36.064c-3.319,0-6.011-2.688-6.011-6.002v-36.01
	c0-3.314,2.692-6.002,6.011-6.002h36.064c3.319,0,6.011,2.688,6.011,6.002V413.998z"/>
<polygon fill="#EAEAEA" points="306.157,386.912 312.422,381.446 321.346,387.539 315.171,392.871 "/>
<polygon fill="#EAEAEA" points="306.157,398.875 312.422,404.341 321.346,398.248 315.171,392.916 "/>
<polygon fill="#EAEAEA" points="306.202,386.912 299.938,381.446 291.014,387.539 297.188,392.871 "/>
<polygon fill="#EAEAEA" points="306.202,398.875 299.938,404.341 291.014,398.248 297.188,392.916 "/>
<polygon fill="#EAEAEA" points="315.282,403.935 312.488,405.873 306.157,400.375 306.157,400.375 306.145,400.385 306.157,400.375 
	306.133,400.396 299.802,405.873 297.008,403.935 297.008,405.558 306.088,411.166 306.145,411.201 306.145,411.201 
	306.145,411.201 306.202,411.166 315.282,405.558 "/>
<polygon fill="#288BD8" points="306.157,387.912 312.422,382.446 321.346,388.539 315.171,393.871 "/>
<polygon fill="#288BD8" points="306.157,399.875 312.422,405.341 321.346,399.248 315.171,393.916 "/>
<polygon fill="#288BD8" points="306.202,387.912 299.938,382.446 291.014,388.539 297.188,393.871 "/>
<polygon fill="#288BD8" points="306.202,399.875 299.938,405.341 291.014,399.248 297.188,393.916 "/>
<polygon fill="#288BD8" points="315.282,404.935 312.488,406.873 306.157,401.375 306.157,401.375 306.145,401.385 306.157,401.375 
	306.133,401.396 299.802,406.873 297.008,404.935 297.008,406.558 306.088,412.166 306.145,412.201 306.145,412.201 
	306.145,412.201 306.202,412.166 315.282,406.558 "/>
</svg>
