<?xml version="1.0" encoding="UTF-8" standalone="no"?>
<!-- Created with Inkscape (http://www.inkscape.org/) -->

<svg
   xmlns:svg="http://www.w3.org/2000/svg"
   xmlns="http://www.w3.org/2000/svg"
   xmlns:xlink="http://www.w3.org/1999/xlink"
   version="1.1"
   width="100%"
   height="100%"
   viewBox="456 256 48 48">
<linearGradient
   x1="351.36621"
   y1="312.875"
   x2="351.36621"
   y2="301.375"
   id="SVGID_1_"
   gradientUnits="userSpaceOnUse"
   gradientTransform="matrix(4.1667,0,0,-4.1667,-983.9935,1559.6541)">
	<stop
   id="stop3294"
   style="stop-color:#6193ff;stop-opacity:1"
   offset="0" />
	<stop
   id="stop3296"
   style="stop-color:#2451b1;stop-opacity:1"
   offset="1" />
</linearGradient>
<path
   d="m 504,297.928 c 0,3.307 -2.683,5.989 -5.989,5.989 h -35.938 c -3.308,0 -5.99,-2.683 -5.99,-5.989 V 261.99 c 0,-3.307 2.682,-5.99 5.99,-5.99 h 35.938 c 3.307,0 5.989,2.683 5.989,5.99 v 35.938 z"
   id="path3298"
   style="fill:url(#SVGID_1_);fill-opacity:1" />


<g
   transform="matrix(0.21333333,0,0,0.21444044,456.37245,254.18301)"
   id="g3714"
   style="fill:#003685;fill-opacity:0.81333331"><polygon
     points="124.22656,27.79297 123.92383,79.49414 161.63672,29.01074 192.04688,36.00293 152.81445,86.48779 191.74219,140.01514 161.93945,149.44482 123.92383,93.78662 123.92383,143.96826 95.64209,148.22705 95.64209,148.22705 95.64209,30.5293 "
     id="polygon3716"
     style="fill:#003685;fill-opacity:0.81333331" /><path
     d="m 163.82031,156.83643 -2.46973,0.78125 c -0.36035,0.11328 -0.75293,-0.0215 -0.96484,-0.33496 0,0 -4.87207,-7.12988 -11.16309,-16.33691 -7.52051,14.71875 -22.82129,24.80078 -40.49023,24.80078 -25.10303,0 -45.45508,-20.35254 -45.45508,-45.45703 0,-18.46777 11.01563,-34.3501 26.82861,-41.46484 l 0,-11.72609 c -2.87793,1.00684 -5.65967,2.22021 -8.30225,3.65967 -0.0024,-0.002 -0.0059,-0.0068 -0.01318,-0.01074 L 60.37842,56.70459 c -0.57715,-0.37695 -1.33691,-0.29883 -1.82178,0.18945 l -11.21875,11.2168 c -0.47168,0.47314 -0.56055,1.20801 -0.21289,1.78076 l 13.13428,21.63135 c -2.32959,3.9165 -4.19531,8.13965 -5.52979,12.59424 l -24.11377,5.01563 c -0.6709,0.13916 -1.1543,0.7334 -1.1543,1.42188 l 0,15.86279 c 0,0.6709 0.45801,1.25195 1.10449,1.4082 l 23.4043,5.7207 c 1.24805,5.15918 3.18262,10.05078 5.73877,14.5459 l -13.54639,20.6582 c -0.37793,0.57715 -0.29883,1.33789 0.18945,1.82422 l 11.21533,11.2168 c 0.47168,0.4707 1.20801,0.56152 1.7832,0.21582 L 80.5786,169.11475 c 4.16992,2.40625 8.66699,4.2998 13.41992,5.58398 l 4.95264,23.81445 c 0.13965,0.6748 0.73682,1.15527 1.4209,1.15527 l 15.86523,0 c 0.66699,0 1.24805,-0.45508 1.40723,-1.10938 l 5.83496,-23.86426 c 4.89941,-1.32227 9.5332,-3.29297 13.80469,-5.80859 L 158.2041,182.604 c 0.5752,0.37891 1.33496,0.30273 1.82324,-0.18555 l 11.21875,-11.2168 c 0.47461,-0.47461 0.56055,-1.20801 0.21191,-1.7793 l -7.63769,-12.58592 z"
     id="path3718"
     style="fill:#003685;fill-opacity:0.81333331" /></g><g
   transform="matrix(0.21333333,0,0,0.21444044,456.37245,255.61154)"
   id="g3705"><polygon
     points="95.64209,148.22705 95.64209,30.5293 124.22656,27.79297 123.92383,79.49414 161.63672,29.01074 192.04688,36.00293 152.81445,86.48779 191.74219,140.01514 161.93945,149.44482 123.92383,93.78662 123.92383,143.96826 95.64209,148.22705 "
     id="path5692_2_"
     style="fill:#ffffff" /><path
     d="m 163.82031,156.83643 -2.46973,0.78125 c -0.36035,0.11328 -0.75293,-0.0215 -0.96484,-0.33496 0,0 -4.87207,-7.12988 -11.16309,-16.33691 -7.52051,14.71875 -22.82129,24.80078 -40.49023,24.80078 -25.10303,0 -45.45508,-20.35254 -45.45508,-45.45703 0,-18.46777 11.01563,-34.3501 26.82861,-41.46484 l 0,-11.72609 c -2.87793,1.00684 -5.65967,2.22021 -8.30225,3.65967 -0.0024,-0.002 -0.0059,-0.0068 -0.01318,-0.01074 L 60.37842,56.70459 c -0.57715,-0.37695 -1.33691,-0.29883 -1.82178,0.18945 l -11.21875,11.2168 c -0.47168,0.47314 -0.56055,1.20801 -0.21289,1.78076 l 13.13428,21.63135 c -2.32959,3.9165 -4.19531,8.13965 -5.52979,12.59424 l -24.11377,5.01563 c -0.6709,0.13916 -1.1543,0.7334 -1.1543,1.42188 l 0,15.86279 c 0,0.6709 0.45801,1.25195 1.10449,1.4082 l 23.4043,5.7207 c 1.24805,5.15918 3.18262,10.05078 5.73877,14.5459 l -13.54639,20.6582 c -0.37793,0.57715 -0.29883,1.33789 0.18945,1.82422 l 11.21533,11.2168 c 0.47168,0.4707 1.20801,0.56152 1.7832,0.21582 L 80.5786,169.11475 c 4.16992,2.40625 8.66699,4.2998 13.41992,5.58398 l 4.95264,23.81445 c 0.13965,0.6748 0.73682,1.15527 1.4209,1.15527 l 15.86523,0 c 0.66699,0 1.24805,-0.45508 1.40723,-1.10938 l 5.83496,-23.86426 c 4.89941,-1.32227 9.5332,-3.29297 13.80469,-5.80859 L 158.2041,182.604 c 0.5752,0.37891 1.33496,0.30273 1.82324,-0.18555 l 11.21875,-11.2168 c 0.47461,-0.47461 0.56055,-1.20801 0.21191,-1.7793 l -7.63769,-12.58592 z"
     id="path79"
     style="fill:#ffffff" /></g></svg>