<?xml version="1.0" encoding="utf-8"?>
<!-- Generator: Adobe Illustrator 17.0.0, SVG Export Plug-In . SVG Version: 6.00 Build 0)  -->
<!DOCTYPE svg PUBLIC "-//W3C//DTD SVG 1.1//EN" "http://www.w3.org/Graphics/SVG/1.1/DTD/svg11.dtd">
<svg version="1.1" id="Icon" xmlns="http://www.w3.org/2000/svg" xmlns:xlink="http://www.w3.org/1999/xlink" x="0px" y="0px" viewBox="282 372 48 48" enable-background="new 282 372 48 48" xml:space="preserve">
<linearGradient id="SVGID_1_" gradientUnits="userSpaceOnUse" x1="24.4641" y1="770.4226" x2="24.4641" y2="766.6569" gradientTransform="matrix(12.75 0 0 -12.75 -5.875 10194.875)">
	<stop  offset="0" style="stop-color:#FFFFFF"/>
	<stop  offset="1" style="stop-color:#EAEAEA"/>
</linearGradient>
<path fill="url(#SVGID_1_)" d="M330.086,413.998c0,3.314-2.692,6.002-6.011,6.002h-36.064c-3.319,0-6.011-2.688-6.011-6.002v-36.01
	c0-3.314,2.692-6.002,6.011-6.002h36.064c3.319,0,6.011,2.688,6.011,6.002V413.998z"/>
<path fill="#EAEAEA" d="M306.132,382.871c6.778,0,12.273,5.494,12.273,12.272c0,6.778-5.494,12.273-12.272,12.273
	c-6.778,0-12.273-5.494-12.273-12.272C293.86,388.366,299.354,382.871,306.132,382.871 M306.132,379.038
	c-8.88,0-16.105,7.226-16.105,16.106c0,8.88,7.226,16.105,16.106,16.104c8.88,0,16.105-7.226,16.104-16.106
	C322.238,386.262,315.013,379.038,306.132,379.038L306.132,379.038z"/>
<circle fill="#EAEAEA" cx="306.133" cy="395.143" r="9.973"/>
<circle cx="306.133" cy="397.035" r="9.973"/>
<path d="M306.132,384.762c6.778,0,12.273,5.494,12.273,12.272s-5.494,12.273-12.272,12.273c-6.778,0-12.273-5.494-12.273-12.272
	C293.86,390.257,299.354,384.762,306.132,384.762 M306.132,380.929c-8.88,0-16.105,7.226-16.105,16.106
	c0,8.88,7.226,16.105,16.106,16.104s16.105-7.226,16.104-16.106C322.238,388.154,315.013,380.929,306.132,380.929L306.132,380.929z"
	/>
</svg>
