<?xml version="1.0" encoding="utf-8"?>
<!DOCTYPE svg PUBLIC "-//W3C//DTD SVG 1.1//EN" "http://www.w3.org/Graphics/SVG/1.1/DTD/svg11.dtd">
<svg version="1.1" id="Icon" xmlns="http://www.w3.org/2000/svg" xmlns:xlink="http://www.w3.org/1999/xlink" x="0px" y="0px" viewBox="0 0 40 40" enable-background="new 0 0 40 40" xml:space="preserve">
<linearGradient id="SVGID_1_" gradientUnits="userSpaceOnUse" x1="20" y1="-6.739356e-10" x2="20" y2="40">
	<stop  offset="0" style="stop-color:#F2F1ED"/>
	<stop  offset="1" style="stop-color:#EBEAE5"/>
</linearGradient>
<path fill="url(#SVGID_1_)" d="M40,35c0,2.761-2.239,5-5,5H5c-2.761,0-5-2.239-5-5V5c0-2.761,2.239-5,5-5h30c2.761,0,5,2.239,5,5V35
	z"/>
<path fill="#EBEAE5" d="M21.711,15.294V15.28H17.1v-4.343c0-1.228-0.995-2.223-2.223-2.223s-2.223,0.995-2.223,2.223
	c0,0.069,0.004,0.138,0.01,0.205l-0.01,0v4.137h-1.852c-1.228,0-2.223,0.995-2.223,2.223s0.995,2.223,2.223,2.223
	c0.069,0,0.138-0.004,0.205-0.01l0,0.01h1.647v4.214c0,4.816,3.937,8.787,8.753,8.787c4.816,0,8.72-3.904,8.72-8.72
	C30.128,19.292,26.386,15.454,21.711,15.294z M21.408,28.287c-2.343,0-4.274-1.904-4.308-4.24v-4.322h4.222
	c0.004,0.001,0.007,0.002,0.011,0.003c0.025,0,0.05-0.003,0.075-0.003c2.364,0,4.281,1.917,4.281,4.281
	C25.689,26.371,23.772,28.287,21.408,28.287z"/>
<path fill="#FF4A00" d="M21.711,14.294V14.28H17.1V9.937c0-1.228-0.995-2.223-2.223-2.223s-2.223,0.995-2.223,2.223
	c0,0.069,0.004,0.138,0.01,0.205l-0.01,0v4.137h-1.852c-1.228,0-2.223,0.995-2.223,2.223s0.995,2.223,2.223,2.223
	c0.069,0,0.138-0.004,0.205-0.01l0,0.01h1.647v4.214c0,4.816,3.937,8.787,8.753,8.787c4.816,0,8.72-3.904,8.72-8.72
	C30.128,18.292,26.386,14.454,21.711,14.294z M21.408,27.287c-2.343,0-4.274-1.904-4.308-4.24v-4.322h4.222
	c0.004,0.001,0.007,0.002,0.011,0.003c0.025,0,0.05-0.003,0.075-0.003c2.364,0,4.281,1.917,4.281,4.281
	C25.689,25.371,23.772,27.287,21.408,27.287z"/>
<rect x="12.655" y="14.28" fill="#AE0000" width="4.446" height="4.446"/>
</svg>
