<?xml version="1.0" encoding="utf-8"?>
<!DOCTYPE svg PUBLIC "-//W3C//DTD SVG 1.1//EN" "http://www.w3.org/Graphics/SVG/1.1/DTD/svg11.dtd">
<svg version="1.1" id="icon" xmlns="http://www.w3.org/2000/svg" xmlns:xlink="http://www.w3.org/1999/xlink" x="0px" y="0px" viewBox="0 0 40 40" enable-background="new 0 0 40 40" xml:space="preserve">
<linearGradient id="SVGID_1_" gradientUnits="userSpaceOnUse" x1="367.1" y1="-410.1" x2="367.1" y2="-458.1" gradientTransform="matrix(0.8333 0 0 -0.8333 -285.9167 -341.75)">
	<stop  offset="0" style="stop-color:#FFFFFF"/>
	<stop  offset="1" style="stop-color:#EAEAEA"/>
</linearGradient>
<path fill="url(#SVGID_1_)" d="M40,35c0,2.761-2.239,5-5,5H5c-2.761,0-5-2.239-5-5V5c0-2.761,2.239-5,5-5h30c2.761,0,5,2.239,5,5V35
	z"/>
<path fill="#EAEAEA" d="M33.267,17.121c-0.541-1.127-1.551-1.986-2.786-2.31c0.508-0.87,0.68-1.876,0.531-2.842
	c-0.134-0.864-0.523-1.697-1.19-2.364c-0.736-0.736-1.67-1.137-2.629-1.225c-0.883-0.081-1.787,0.104-2.578,0.566
	c-0.344-1.31-1.287-2.368-2.517-2.879c-0.504-0.209-1.05-0.336-1.631-0.336c-0.643,0-1.244,0.154-1.789,0.407
	c-1.151,0.535-2.03,1.555-2.358,2.808c-0.852-0.498-1.836-0.676-2.784-0.543c-0.786,0.11-1.54,0.447-2.178,0.997
	c-0.081,0.069-0.167,0.129-0.244,0.205c-0.077,0.077-0.136,0.163-0.205,0.244c-0.583,0.676-0.928,1.482-1.017,2.318
	c-0.097,0.904,0.09,1.834,0.563,2.645c-1.293,0.339-2.339,1.263-2.857,2.469c-0.222,0.516-0.358,1.079-0.358,1.679
	c0,0.581,0.127,1.127,0.336,1.631c0.511,1.229,1.569,2.173,2.879,2.517c-0.462,0.79-0.646,1.694-0.566,2.578
	c0.088,0.959,0.489,1.893,1.225,2.629c0.667,0.667,1.5,1.057,2.364,1.19c0.966,0.149,1.973-0.023,2.842-0.531
	c0.324,1.235,1.183,2.245,2.31,2.786c0.558,0.268,1.176,0.429,1.837,0.429c0.599,0,1.162-0.135,1.679-0.358
	c1.206-0.519,2.13-1.565,2.469-2.858c0.81,0.474,1.74,0.66,2.644,0.563c0.48-0.051,0.953-0.182,1.397-0.396
	c0.42-0.203,0.815-0.477,1.165-0.827c0.349-0.349,0.624-0.744,0.827-1.165c0.193-0.4,0.314-0.825,0.375-1.257
	c0.133-0.948-0.045-1.932-0.543-2.785c1.253-0.329,2.273-1.207,2.808-2.358c0.253-0.545,0.408-1.147,0.408-1.789
	C33.696,18.297,33.535,17.679,33.267,17.121z"/>
<g>
	<path fill="#02B2F4" d="M11.115,10.605c-0.077,0.077-0.136,0.163-0.205,0.244l0.449-0.449
		C11.277,10.469,11.191,10.528,11.115,10.605z"/>
	
		<rect x="17.734" y="9.897" transform="matrix(0.7071 0.7071 -0.7071 0.7071 14.8114 -10.7261)" fill="#FFFFFF" width="5.238" height="5.238"/>
	
		<rect x="21.438" y="13.601" transform="matrix(-0.7071 -0.7071 0.7071 -0.7071 29.5988 44.6997)" fill="#02B2F4" width="5.238" height="5.238"/>
	<path fill="#02B2F4" d="M18.679,7.138c-1.151,0.535-2.03,1.555-2.358,2.808c-0.852-0.498-1.836-0.676-2.785-0.543l3.113,3.113
		l3.704-3.704L18.679,7.138z"/>
	
		<rect x="25.142" y="17.305" transform="matrix(0.7071 -0.7071 0.7071 0.7071 -5.9571 25.4654)" fill="#FFFFFF" width="5.238" height="5.238"/>
	<path fill="#02B2F4" d="M27.761,23.627l3.263,3.263c0.133-0.948-0.045-1.932-0.543-2.785c1.253-0.329,2.273-1.207,2.808-2.358
		l-1.824-1.824L27.761,23.627z"/>
	
		<rect x="14.03" y="13.601" transform="matrix(0.7071 0.7071 -0.7071 0.7071 16.3456 -7.0222)" fill="#02B2F4" width="5.238" height="5.238"/>
	
		<rect x="17.734" y="17.305" transform="matrix(-0.7071 -0.7071 0.7071 -0.7071 20.6569 48.4036)" fill="#0078EE" width="5.238" height="5.238"/>
	<path fill="#0177EF" d="M12.945,16.22l3.704-3.704l-3.113-3.113c-0.786,0.111-1.54,0.447-2.178,0.997l-0.449,0.449
		c-0.583,0.676-0.928,1.482-1.017,2.318L12.945,16.22z"/>
	
		<rect x="21.438" y="21.008" transform="matrix(-0.7071 -0.7071 0.7071 -0.7071 24.3608 57.3455)" fill="#02B2F4" width="5.238" height="5.238"/>
	<path fill="#0177EF" d="M27.761,23.627l-3.704,3.704l3.203,3.203c0.48-0.051,0.953-0.182,1.397-0.396
		c0.42-0.203,0.815-0.477,1.165-0.827s0.624-0.744,0.827-1.165c0.193-0.4,0.314-0.825,0.375-1.257L27.761,23.627z"/>
	
		<rect x="10.326" y="17.305" transform="matrix(-0.7071 0.7071 -0.7071 -0.7071 36.1874 24.8579)" fill="#FFFFFF" width="5.238" height="5.238"/>
	
		<rect x="14.03" y="21.008" transform="matrix(-0.7071 -0.7071 0.7071 -0.7071 11.715 52.1075)" fill="#02B2F4" width="5.238" height="5.238"/>
	<path fill="#02B2F4" d="M12.945,16.22l-3.053-3.053c-0.097,0.904,0.09,1.834,0.563,2.645c-1.293,0.339-2.339,1.263-2.858,2.469
		l1.644,1.644L12.945,16.22z"/>
	
		<rect x="17.734" y="24.712" transform="matrix(-0.7071 -0.7071 0.7071 -0.7071 15.4189 61.0494)" fill="#FFFFFF" width="5.238" height="5.238"/>
	<path fill="#02B2F4" d="M22.147,32.829c1.206-0.519,2.13-1.565,2.469-2.858c0.81,0.473,1.74,0.66,2.644,0.563l-3.203-3.203
		l-3.704,3.704L22.147,32.829z"/>
	<path fill="#02B2F4" d="M9.242,19.924l-1.665,1.665c0.511,1.229,1.569,2.173,2.879,2.517c-0.462,0.79-0.646,1.694-0.566,2.578
		l3.056-3.056L9.242,19.924z"/>
	<path fill="#0078EE" d="M12.945,23.627L9.89,26.683c0.088,0.959,0.489,1.893,1.225,2.629c0.667,0.667,1.499,1.057,2.364,1.19
		l3.171-3.171L12.945,23.627z"/>
	<path fill="#0078EE" d="M7.598,18.28c-0.222,0.516-0.358,1.079-0.358,1.679c0,0.581,0.127,1.127,0.336,1.631l1.665-1.665
		L7.598,18.28z"/>
	<path fill="#02B2F4" d="M16.649,27.331l-3.171,3.171c0.966,0.149,1.973-0.023,2.842-0.531c0.324,1.235,1.183,2.245,2.31,2.786
		l1.722-1.722L16.649,27.331z"/>
	<path fill="#0078EE" d="M18.631,32.757c0.558,0.268,1.176,0.429,1.837,0.429c0.599,0,1.162-0.135,1.679-0.358l-1.794-1.794
		L18.631,32.757z"/>
	<path fill="#02B2F4" d="M24.057,12.516l3.136-3.136c-0.883-0.081-1.787,0.104-2.578,0.566c-0.344-1.31-1.287-2.368-2.517-2.879
		l-1.746,1.746L24.057,12.516z"/>
	<path fill="#0078EE" d="M27.761,16.22l3.251-3.251c-0.134-0.864-0.523-1.696-1.19-2.364c-0.736-0.736-1.67-1.137-2.629-1.225
		l-3.136,3.136L27.761,16.22z"/>
	<path fill="#0078EE" d="M22.099,7.066c-0.504-0.209-1.05-0.336-1.631-0.336c-0.643,0-1.244,0.154-1.789,0.407l1.674,1.674
		L22.099,7.066z"/>
	<path fill="#02B2F4" d="M30.481,15.811c0.508-0.87,0.68-1.876,0.531-2.842l-3.251,3.251l3.704,3.704l1.802-1.802
		C32.726,16.994,31.716,16.135,30.481,15.811z"/>
	<path fill="#0078EE" d="M33.289,21.748c0.253-0.545,0.407-1.147,0.407-1.789c0-0.661-0.162-1.28-0.429-1.837l-1.802,1.802
		L33.289,21.748z"/>
</g>
</svg>
