<?xml version="1.0" encoding="utf-8"?>
<!-- Generator: Adobe Illustrator 17.0.0, SVG Export Plug-In . SVG Version: 6.00 Build 0)  -->
<!DOCTYPE svg PUBLIC "-//W3C//DTD SVG 1.1//EN" "http://www.w3.org/Graphics/SVG/1.1/DTD/svg11.dtd">
<svg version="1.1" id="Icon" xmlns="http://www.w3.org/2000/svg" xmlns:xlink="http://www.w3.org/1999/xlink" x="0px" y="0px" viewBox="282 372 48 48" enable-background="new 282 372 48 48" xml:space="preserve">
<linearGradient id="SVGID_1_" gradientUnits="userSpaceOnUse" x1="24.4641" y1="770.4226" x2="24.4641" y2="766.6569" gradientTransform="matrix(12.75 0 0 -12.75 -5.875 10194.875)">
	<stop  offset="0" style="stop-color:#517FA4"/>
	<stop  offset="1" style="stop-color:#467391"/>
</linearGradient>
<path fill="url(#SVGID_1_)" d="M330.086,413.998c0,3.314-2.692,6.002-6.011,6.002h-36.064c-3.319,0-6.011-2.688-6.011-6.002v-36.01
	c0-3.314,2.692-6.002,6.011-6.002h36.064c3.319,0,6.011,2.688,6.011,6.002V413.998z"/>
<path fill="#467391" d="M316.917,380.371h-21.605c-2.013,0-3.644,1.632-3.644,3.644v21.866c0,2.013,1.631,3.644,3.644,3.644h21.605
	c2.013,0,3.644-1.631,3.644-3.644v-21.866C320.561,382.003,318.93,380.371,316.917,380.371z M312.059,394.949
	c0,3.278-2.667,5.945-5.944,5.945c-3.278,0-5.945-2.667-5.945-5.945c0-0.986,0.245-1.913,0.671-2.733
	c0.992-1.905,2.981-3.212,5.274-3.212c2.292,0,4.282,1.306,5.273,3.212C311.814,393.035,312.059,393.963,312.059,394.949z
	 M317.307,404.778c0,0.825-0.669,1.494-1.494,1.494h-19.269c-0.825,0-1.494-0.669-1.494-1.494v-12.563h2.465
	c-0.275,0.863-0.426,1.78-0.426,2.733c0,4.976,4.048,9.024,9.024,9.024c4.976,0,9.024-4.048,9.024-9.024
	c0-0.953-0.151-1.87-0.426-2.733h2.595V404.778z M317.307,387.512c0,0.825-0.669,1.494-1.494,1.494h-2.263
	c-0.825,0-1.494-0.669-1.494-1.494v-2.469c0-0.655,0.424-1.205,1.011-1.407h2.745c0.825,0,1.494,0.669,1.494,1.494V387.512z"/>
<path fill="#FFFFFF" d="M316.917,382.201h-21.605c-2.013,0-3.644,1.632-3.644,3.644v21.866c0,2.013,1.631,3.644,3.644,3.644h21.605
	c2.013,0,3.644-1.631,3.644-3.644v-21.866C320.561,383.833,318.93,382.201,316.917,382.201z M312.059,396.779
	c0,3.278-2.667,5.945-5.944,5.945c-3.278,0-5.945-2.667-5.945-5.945c0-0.986,0.245-1.913,0.671-2.733
	c0.992-1.905,2.981-3.212,5.274-3.212c2.292,0,4.282,1.306,5.273,3.212C311.814,394.865,312.059,395.793,312.059,396.779z
	 M317.307,406.608c0,0.825-0.669,1.494-1.494,1.494h-19.269c-0.825,0-1.494-0.669-1.494-1.494v-12.563h2.465
	c-0.275,0.863-0.426,1.78-0.426,2.733c0,4.976,4.048,9.024,9.024,9.024c4.976,0,9.024-4.048,9.024-9.024
	c0-0.953-0.151-1.87-0.426-2.733h2.595V406.608z M317.307,389.341c0,0.825-0.669,1.494-1.494,1.494h-2.263
	c-0.825,0-1.494-0.669-1.494-1.494v-2.469c0-0.655,0.424-1.205,1.011-1.407h2.745c0.825,0,1.494,0.669,1.494,1.494V389.341z"/>
</svg>
