<?xml version="1.0" encoding="utf-8"?>
<!DOCTYPE svg PUBLIC "-//W3C//DTD SVG 1.1//EN" "http://www.w3.org/Graphics/SVG/1.1/DTD/svg11.dtd">
<svg version="1.1" id="Icon" xmlns="http://www.w3.org/2000/svg" xmlns:xlink="http://www.w3.org/1999/xlink" x="0px" y="0px" viewBox="0 0 40 40" enable-background="new 0 0 40 40" xml:space="preserve">
<linearGradient id="SVGID_1_" gradientUnits="userSpaceOnUse" x1="367.1" y1="-410.1" x2="367.1" y2="-458.1" gradientTransform="matrix(0.8333 0 0 -0.8333 -285.9167 -341.75)">
	<stop  offset="0" style="stop-color:#424140"/>
	<stop  offset="1" style="stop-color:#333332"/>
</linearGradient>
<path fill="url(#SVGID_1_)" d="M40,35c0,2.761-2.239,5-5,5H5c-2.761,0-5-2.239-5-5V5c0-2.761,2.239-5,5-5h30c2.761,0,5,2.239,5,5V35
	z"/>
<polygon fill="#30302F" points="17.816,26.413 14.889,14.974 14.889,24.152 15.821,24.152 15.821,26.413 10.5,26.413 10.5,24.152 
	11.431,24.152 11.431,13.91 10.5,13.91 10.5,11.649 17.816,11.649 20.21,21.705 22.338,11.649 29.5,11.649 29.5,13.91 28.569,13.91 
	28.569,24.152 29.5,24.152 29.5,26.413 23.714,26.413 23.714,24.152 24.645,24.152 24.645,14.974 21.719,26.413 "/>
<polygon fill="#FFFFFF" points="17.816,27.351 14.889,15.912 14.889,25.09 15.821,25.09 15.821,27.351 10.5,27.351 10.5,25.09 
	11.431,25.09 11.431,14.848 10.5,14.848 10.5,12.587 17.816,12.587 20.21,22.644 22.338,12.587 29.5,12.587 29.5,14.848 
	28.569,14.848 28.569,25.09 29.5,25.09 29.5,27.351 23.714,27.351 23.714,25.09 24.645,25.09 24.645,15.912 21.719,27.351 "/>
</svg>
