<?xml version="1.0" encoding="utf-8"?>
<!-- Generator: Adobe Illustrator 17.0.0, SVG Export Plug-In . SVG Version: 6.00 Build 0)  -->
<!DOCTYPE svg PUBLIC "-//W3C//DTD SVG 1.1//EN" "http://www.w3.org/Graphics/SVG/1.1/DTD/svg11.dtd">
<svg version="1.1" id="Icon" xmlns="http://www.w3.org/2000/svg" xmlns:xlink="http://www.w3.org/1999/xlink" x="0px" y="0px" viewBox="282 372 48 48" enable-background="new 282 372 48 48" xml:space="preserve">
<linearGradient id="SVGID_1_" gradientUnits="userSpaceOnUse" x1="24.4641" y1="770.4226" x2="24.4641" y2="766.6569" gradientTransform="matrix(12.75 0 0 -12.75 -5.875 10194.875)">
	<stop  offset="0" style="stop-color:#F93C2D"/>
	<stop  offset="1" style="stop-color:#D32D20"/>
</linearGradient>
<path fill="url(#SVGID_1_)" d="M330.086,413.998c0,3.314-2.692,6.002-6.011,6.002h-36.064c-3.319,0-6.011-2.688-6.011-6.002v-36.01
	c0-3.314,2.692-6.002,6.011-6.002h36.064c3.319,0,6.011,2.688,6.011,6.002V413.998z"/>
<path fill="#FFFFFF" d="M306.726,408.252c0,0,5.185,0,10.157-0.252c4.972-0.252,5.881-1.625,6.357-5.883
	c0.629-5.634-0.063-13.124-0.063-13.124s-0.063-4.595-5.287-4.783c-5.224-0.189-11.156-0.252-11.156-0.252h-1.081
	c0,0-5.932,0.063-11.156,0.252c-5.224,0.189-5.287,4.783-5.287,4.783s-0.692,7.49-0.063,13.124c0.476,4.258,1.385,5.632,6.357,5.883
	c4.972,0.252,10.157,0.252,10.157,0.252H306.726z"/>
<polygon fill="#DA281E" points="302.616,391.133 302.616,400.949 311.931,396.105 "/>
<polygon fill="#C9221B" points="302.616,391.133 310.781,396.703 311.931,396.105 "/>
</svg>
