<?xml version="1.0" encoding="UTF-8" standalone="no"?>
<svg
   xmlns:dc="http://purl.org/dc/elements/1.1/"
   xmlns:cc="http://creativecommons.org/ns#"
   xmlns:rdf="http://www.w3.org/1999/02/22-rdf-syntax-ns#"
   xmlns:svg="http://www.w3.org/2000/svg"
   xmlns="http://www.w3.org/2000/svg"
   xmlns:sodipodi="http://sodipodi.sourceforge.net/DTD/sodipodi-0.dtd"
   xmlns:inkscape="http://www.inkscape.org/namespaces/inkscape"
   version="1.1"
   id="Icon"
   x="0px"
   y="0px"
   viewBox="0 0 48 48"
   enable-background="new 0 0 48 48"
   xml:space="preserve"
   inkscape:version="0.48.3.1 r9886"
   width="100%"
   height="100%"
   sodipodi:docname="fc-webicon-openid.svg"
   inkscape:export-filename="/home/jmbarbier/webicons/images/fc-webicon-openid-s.png"
   inkscape:export-xdpi="37.5"
   inkscape:export-ydpi="37.5"><metadata
   id="metadata22"><rdf:RDF><cc:Work
       rdf:about=""><dc:format>image/svg+xml</dc:format><dc:type
         rdf:resource="http://purl.org/dc/dcmitype/StillImage" /><dc:title></dc:title></cc:Work></rdf:RDF></metadata><defs
   id="defs20"><filter
     id="filter6207"
     style="color-interpolation-filters:sRGB;"
     inkscape:label="Drop Shadow"><feFlood
       id="feFlood6209"
       flood-opacity="0.5"
       flood-color="rgb(0,0,0)"
       result="flood" /><feComposite
       id="feComposite6211"
       in2="SourceGraphic"
       in="flood"
       operator="in"
       result="composite1" /><feOffset
       id="feOffset6213"
       dx="-1"
       dy="-1.9"
       result="offset" /><feComposite
       id="feComposite6215"
       in2="offset"
       in="SourceGraphic"
       operator="over"
       result="composite2" /></filter></defs><sodipodi:namedview
   pagecolor="#ffffff"
   bordercolor="#666666"
   borderopacity="1"
   objecttolerance="10"
   gridtolerance="10"
   guidetolerance="10"
   inkscape:pageopacity="0"
   inkscape:pageshadow="2"
   inkscape:window-width="1366"
   inkscape:window-height="697"
   id="namedview18"
   showgrid="false"
   inkscape:zoom="4.9166667"
   inkscape:cx="-12.058969"
   inkscape:cy="23.58028"
   inkscape:window-x="0"
   inkscape:window-y="24"
   inkscape:window-maximized="1"
   inkscape:current-layer="Icon" />
<linearGradient
   id="SVGID_1_"
   gradientUnits="userSpaceOnUse"
   x1="23.9995"
   y1="0"
   x2="23.9995"
   y2="48.0005">
	<stop
   offset="0"
   style="stop-color:#FFFFFF"
   id="stop4" />
	<stop
   offset="1"
   style="stop-color:#EAEAEA"
   id="stop6" />
</linearGradient>
<path
   fill-rule="evenodd"
   clip-rule="evenodd"
   fill="url(#SVGID_1_)"
   d="M48,42c0,3.313-2.687,6-6,6H6c-3.313,0-6-2.687-6-6V6  c0-3.313,2.687-6,6-6h36c3.313,0,6,2.687,6,6V42z"
   id="path8" />




<g
   id="g6101"
   style="filter:url(#filter6207)"
   transform="translate(-0.61017014,1.220339)"><path
     d="M 42.118608,19.081278 42.851153,26.68767 32.58807,24.454709"
     style="fill:#bcbec0;fill-opacity:1;fill-rule:nonzero;stroke:none"
     id="path3068"
     inkscape:connector-curvature="0" /><g
     id="g6097"><path
       inkscape:connector-curvature="0"
       id="path3066"
       style="fill:#f8941c;fill-opacity:1;fill-rule:nonzero;stroke:none"
       d="m 23.739109,10.324613 0,26.525352 0,3.327037 5.307091,-2.4978 0,-29.9472675 -5.307091,2.5926785 z" /><path
       inkscape:connector-curvature="0"
       id="path3070"
       style="fill:#bcbec0;fill-opacity:1;fill-rule:nonzero;stroke:none"
       d="m 13.124928,28.815213 c 0,-3.760406 4.097571,-6.927242 9.682621,-7.893961 l 0,-3.370834 c -8.542758,1.032561 -14.9897119,5.683068 -14.9897119,11.264795 0,5.782906 6.9199489,10.565921 15.9212719,11.361819 l 0,-3.327049 C 17.683055,36.090739 13.124928,32.782098 13.124928,28.815213 m 16.852832,-11.263471 0,3.36951 c 2.222178,0.384598 4.210015,1.115649 5.796521,2.096297 l 3.752594,-2.319197 C 36.96952,19.11767 33.668841,17.997871 29.97776,17.551742" /></g></g></svg>