<?xml version="1.0" encoding="utf-8"?>
<!DOCTYPE svg PUBLIC "-//W3C//DTD SVG 1.1//EN" "http://www.w3.org/Graphics/SVG/1.1/DTD/svg11.dtd">
<svg version="1.1" id="Icon" xmlns="http://www.w3.org/2000/svg" xmlns:xlink="http://www.w3.org/1999/xlink" x="0px" y="0px" viewBox="456 256 48 48" enable-background="new 456 256 48 48" xml:space="preserve">
<linearGradient id="SVGID_1_" gradientUnits="userSpaceOnUse" x1="351.3662" y1="312.875" x2="351.3662" y2="301.375" gradientTransform="matrix(4.1667 0 0 -4.1667 -983.9935 1559.6541)">
	<stop  offset="0" style="stop-color:#004889"/>
	<stop  offset="1" style="stop-color:#00346E"/>
</linearGradient>
<path fill="url(#SVGID_1_)" d="M504,297.928c0,3.307-2.683,5.989-5.989,5.989h-35.938c-3.308,0-5.99-2.683-5.99-5.989V261.99
	c0-3.307,2.682-5.99,5.99-5.99h35.938c3.307,0,5.989,2.683,5.989,5.99V297.928z"/>
<path fill="#00305B" d="M487.101,294.288c-0.003,0-0.007,0-0.011,0h-4.518c-0.086,0-0.167-0.036-0.225-0.104
	c-0.058-0.065-0.086-0.154-0.078-0.243c0.004-0.034,0.26-3.525-3.812-7.397c-9.12-8.175-8.724-13.616-8.703-13.843
	c0.01-0.099,0.061-0.186,0.141-0.239c0.079-0.052,0.177-0.062,0.266-0.029c0.03,0.012,3.032,1.163,4.413,1.472
	c0.098,0.022,0.179,0.093,0.218,0.189c0.019,0.05,2.004,4.954,5.472,7.122h0.031c3.472-2.17,5.451-7.072,5.472-7.122
	c0.038-0.096,0.119-0.167,0.217-0.189c1.38-0.309,4.383-1.46,4.412-1.472c0.089-0.033,0.188-0.022,0.266,0.029
	c0.08,0.053,0.132,0.14,0.143,0.239c0.018,0.2,0.37,4.958-7.015,12.254c0.729,1.044,3.556,5.311,3.604,8.925
	c0.008,0.029,0.012,0.061,0.012,0.091C487.404,294.146,487.269,294.288,487.101,294.288z"/>
<path fill="#00305B" d="M477.713,294.288h-4.517c-0.167,0-0.303-0.149-0.303-0.334c0-2.993,1.891-6.632,2.703-8.058
	c0.047-0.081,0.123-0.137,0.208-0.151c0.085-0.02,0.175,0.011,0.242,0.071c2.354,2.126,3.203,3.343,3.238,3.392
	c0.079,0.114,0.082,0.271,0.007,0.391c-1.438,2.293-1.278,4.304-1.276,4.324c0.008,0.094-0.02,0.188-0.078,0.256
	C477.88,294.25,477.799,294.288,477.713,294.288z"/>
<path fill="#00305B" d="M480.333,278.677h-0.019c-0.098,0-0.187-0.049-0.244-0.128c-1.803-1.466-2.452-3.841-2.479-3.943
	c-0.024-0.092-0.008-0.19,0.045-0.269c0.053-0.078,0.137-0.127,0.228-0.134c0.011,0,1.12-0.076,2.558-0.076
	c0.846,0,1.64,0.026,2.361,0.076c0.092,0.007,0.175,0.056,0.228,0.134c0.053,0.079,0.069,0.177,0.045,0.269
	c-0.028,0.103-0.68,2.491-2.494,3.957C480.505,278.632,480.422,278.677,480.333,278.677z"/>
<path fill="#00305B" d="M479.874,271.922c-5.157,0-9.921-1.834-14.161-5.449c-0.241-0.206-0.281-0.562-0.091-0.815
	c0.19-0.254,0.546-0.317,0.815-0.147c0.053,0.034,5.444,3.39,13.811,3.39c4.758,0,9.573-1.07,14.31-3.182
	c0.283-0.125,0.61-0.022,0.77,0.237c0.158,0.261,0.096,0.598-0.146,0.785C494.909,266.954,488.4,271.922,479.874,271.922z"/>
<path fill="#F2F498" d="M487.101,294.288c-0.003,0-0.007,0-0.011,0h-4.518c-0.086,0-0.167-0.035-0.225-0.1
	c-0.058-0.062-0.086-0.147-0.078-0.232c0.004-0.033,0.26-3.364-3.812-7.061c-9.12-7.802-8.724-12.994-8.703-13.211
	c0.01-0.094,0.061-0.177,0.141-0.228c0.079-0.049,0.177-0.06,0.266-0.028c0.03,0.012,3.032,1.11,4.413,1.405
	c0.098,0.021,0.179,0.089,0.218,0.181c0.019,0.048,2.004,4.728,5.472,6.798h0.031c3.472-2.072,5.451-6.75,5.472-6.798
	c0.038-0.092,0.119-0.159,0.217-0.181c1.38-0.295,4.383-1.393,4.412-1.405c0.089-0.032,0.188-0.021,0.266,0.028
	c0.08,0.051,0.132,0.134,0.143,0.228c0.018,0.191,0.37,4.731-7.015,11.696c0.729,0.996,3.556,5.068,3.604,8.518
	c0.008,0.027,0.012,0.058,0.012,0.087C487.404,294.152,487.269,294.288,487.101,294.288z"/>
<path fill="#F2F498" d="M477.713,294.288h-4.517c-0.167,0-0.303-0.136-0.303-0.304c0-2.726,1.891-6.037,2.703-7.336
	c0.047-0.074,0.123-0.124,0.208-0.138c0.085-0.018,0.175,0.01,0.242,0.064c2.354,1.937,3.203,3.043,3.238,3.089
	c0.079,0.104,0.082,0.247,0.007,0.355c-1.438,2.087-1.278,3.917-1.276,3.936c0.008,0.086-0.02,0.171-0.078,0.233
	C477.88,294.253,477.799,294.288,477.713,294.288z"/>
<path fill="#F2F498" d="M480.333,279.389h-0.019c-0.098,0-0.187-0.047-0.244-0.122c-1.803-1.399-2.452-3.667-2.479-3.764
	c-0.024-0.087-0.008-0.182,0.045-0.257c0.053-0.074,0.137-0.121,0.228-0.127c0.011,0,1.12-0.072,2.558-0.072
	c0.846,0,1.64,0.024,2.361,0.072c0.092,0.006,0.175,0.053,0.228,0.127c0.053,0.075,0.069,0.169,0.045,0.257
	c-0.028,0.098-0.68,2.377-2.494,3.776C480.505,279.346,480.422,279.389,480.333,279.389z"/>
<path fill="#F2F498" d="M479.874,272.942c-5.157,0-9.921-1.851-14.161-5.5c-0.241-0.208-0.281-0.567-0.091-0.823
	c0.19-0.256,0.546-0.32,0.815-0.149c0.053,0.034,5.444,3.422,13.811,3.422c4.758,0,9.573-1.081,14.31-3.211
	c0.283-0.126,0.61-0.022,0.77,0.24c0.158,0.263,0.096,0.604-0.146,0.792C494.909,267.927,488.4,272.942,479.874,272.942z"/>
</svg>
