<?xml version="1.0" encoding="utf-8"?>
<!-- Generator: Adobe Illustrator 16.0.0, SVG Export Plug-In . SVG Version: 6.00 Build 0)  -->
<!DOCTYPE svg PUBLIC "-//W3C//DTD SVG 1.1//EN" "http://www.w3.org/Graphics/SVG/1.1/DTD/svg11.dtd">
<svg version="1.1" id="Layer_1" xmlns="http://www.w3.org/2000/svg" xmlns:xlink="http://www.w3.org/1999/xlink" x="0px" y="0px" viewBox="0 0 448.2 115.524" enable-background="new 0 0 448.2 115.524" xml:space="preserve">
<g>
	<path fill="#282828" d="M62.227,2.719v46.81c0,3.624-1.057,6.946-2.869,9.664l-8.153,14.496c-0.453,0.604-1.208,1.208-2.114,1.208
		h-8.456c-0.906,0-1.661-0.604-2.114-1.208l-6.191-11.174l-6.342,11.174c-0.453,0.604-1.208,1.208-2.113,1.208h-8.457
		c-0.755,0-1.66-0.604-1.963-1.208L5.149,59.193c-1.812-2.718-2.869-6.04-2.869-9.664V2.719c0-1.359,1.057-2.416,2.416-2.416h4.832
		c1.359,0,2.416,1.057,2.416,2.416v46.81c0,0.906,0.151,1.661,0.453,2.567l7.248,12.835l7.399-12.835
		c0.302-0.906,0.452-1.661,0.452-2.567V2.719c0-1.359,1.058-2.416,2.416-2.416h4.832c1.209,0,2.416,1.057,2.416,2.416v46.81
		c0,0.906,0.151,1.661,0.303,2.567l7.398,12.835l7.248-12.835c0.303-0.906,0.453-1.661,0.453-2.567V2.719
		c0-1.359,1.058-2.416,2.416-2.416h4.832C61.17,0.303,62.227,1.359,62.227,2.719z"/>
	<path fill="#282828" d="M79.893,9.815v22.801H93.03c1.359,0,2.416,1.057,2.416,2.416v4.832c0,1.359-1.057,2.416-2.416,2.416H79.893
		v22.952H93.03c1.359,0,2.416,1.057,2.416,2.416v4.832c0,1.359-1.057,2.416-2.416,2.416H75.061c-2.718,0-4.832-2.265-4.832-4.832
		V4.983c0-2.718,2.114-4.832,4.832-4.832H93.03c1.359,0,2.416,1.057,2.416,2.416v4.832c0,1.359-1.057,2.416-2.416,2.416H79.893z"/>
	<path fill="#282828" d="M138.331,24.916c0,4.983-1.964,9.362-5.437,12.533c3.473,3.171,5.437,7.701,5.437,12.684v7.248
		c0,9.664-7.853,17.516-17.365,17.516h-12.685c-2.718,0-4.832-2.265-4.832-4.832V4.983c0-2.718,2.114-4.832,4.832-4.832h12.685
		c9.513,0,17.365,7.852,17.365,17.516V24.916z M128.667,17.667c0-4.379-3.474-7.852-7.701-7.852h-7.853v22.801h7.853
		c4.228,0,7.701-3.473,7.701-7.701V17.667z M120.965,42.281h-7.853v22.801h7.853c4.228,0,7.701-3.473,7.701-7.701v-7.248
		C128.667,45.754,125.193,42.281,120.965,42.281z"/>
	<path fill="#282828" d="M155.997,72.481c0,1.359-1.057,2.416-2.416,2.416h-4.832c-1.359,0-2.416-1.057-2.416-2.416V2.567
		c0-1.359,1.057-2.416,2.416-2.416h4.832c1.208,0,2.416,1.057,2.416,2.416V72.481z"/>
	<path fill="#282828" d="M189.064,22.65v-5.134c0-4.228-3.474-7.701-7.701-7.701s-7.701,3.473-7.701,7.701v40.015
		c0,4.228,3.474,7.701,7.701,7.701s7.701-3.473,7.701-7.701v-5.587c0-1.359,1.057-2.416,2.416-2.416h4.832
		c1.358,0,2.416,1.057,2.416,2.416v5.587c0,9.513-7.853,17.365-17.365,17.365c-9.664,0-17.365-7.852-17.365-17.365V17.517
		c0-9.513,7.701-17.365,17.365-17.365c9.513,0,17.365,7.852,17.365,17.365v5.134c0,1.359-1.058,2.416-2.416,2.416h-4.832
		C190.121,25.066,189.064,24.01,189.064,22.65z"/>
	<path fill="#282828" d="M240.1,17.517v39.864c0,9.664-7.852,17.516-17.364,17.516c-9.664,0-17.517-7.852-17.517-17.516V17.517
		c0-9.513,7.853-17.365,17.517-17.365C232.249,0.151,240.1,8.003,240.1,17.517z M230.436,17.517c0-4.228-3.473-7.701-7.7-7.701
		c-4.38,0-7.853,3.473-7.853,7.701v39.864c0,4.379,3.473,7.852,7.853,7.852c4.228,0,7.7-3.473,7.7-7.852V17.517z"/>
	<path fill="#282828" d="M282.985,17.517v54.964c0,1.208-1.058,2.416-2.416,2.416h-4.832c-1.359,0-2.416-1.208-2.416-2.416V17.517
		c0-4.228-3.474-7.701-7.701-7.701c-4.379,0-7.853,3.473-7.853,7.701v54.964c0,1.208-1.057,2.416-2.416,2.416h-4.832
		c-1.358,0-2.416-1.208-2.416-2.416V17.517c0-9.513,7.853-17.365,17.517-17.365C275.132,0.151,282.985,8.003,282.985,17.517z"/>
	<path fill="#282828" d="M314.542,22.65v-5.134c0-4.228-3.474-7.701-7.701-7.701c-4.229,0-7.701,3.473-7.701,7.701
		c0,1.963,0,1.963,0.453,2.567l20.989,27.784c3.624,4.832,3.624,4.832,3.624,9.664c0,9.513-7.853,17.365-17.365,17.365
		c-9.514,0-17.365-7.852-17.365-17.365v-5.134c0-1.359,1.057-2.416,2.416-2.416h4.832c1.358,0,2.416,1.057,2.416,2.416v5.134
		c0,4.228,3.473,7.701,7.701,7.701c4.228,0,7.701-3.473,7.701-7.701c0-1.963,0-1.963-0.453-2.567L293.1,27.181
		c-3.624-4.832-3.624-4.832-3.624-9.664c0-9.513,7.852-17.365,17.365-17.365c9.513,0,17.365,7.852,17.365,17.365v5.134
		c0,1.359-1.058,2.416-2.416,2.416h-4.832C315.599,25.066,314.542,24.01,314.542,22.65z"/>
	<path fill="#282828" d="M371.469,22.65v-5.134c0-4.228-3.474-7.701-7.701-7.701c-4.229,0-7.701,3.473-7.701,7.701
		c0,1.963,0,1.963,0.453,2.567l20.989,27.784c3.624,4.832,3.624,4.832,3.624,9.664c0,9.513-7.853,17.365-17.365,17.365
		c-9.514,0-17.365-7.852-17.365-17.365v-5.134c0-1.359,1.057-2.416,2.416-2.416h4.832c1.359,0,2.416,1.057,2.416,2.416v5.134
		c0,4.228,3.473,7.701,7.701,7.701c4.228,0,7.701-3.473,7.701-7.701c0-1.963,0-1.963-0.453-2.567l-20.989-27.784
		c-3.624-4.832-3.624-4.832-3.624-9.664c0-9.513,7.852-17.365,17.365-17.365c9.513,0,17.365,7.852,17.365,17.365v5.134
		c0,1.359-1.058,2.416-2.416,2.416h-4.832C372.526,25.066,371.469,24.01,371.469,22.65z"/>
	<path fill="#282828" d="M397.29,9.815v22.801h13.137c1.359,0,2.416,1.057,2.416,2.416v4.832c0,1.359-1.057,2.416-2.416,2.416
		H397.29v22.952h13.137c1.359,0,2.416,1.057,2.416,2.416v4.832c0,1.359-1.057,2.416-2.416,2.416h-17.969
		c-2.718,0-4.832-2.265-4.832-4.832V4.983c0-2.718,2.114-4.832,4.832-4.832h17.969c1.359,0,2.416,1.057,2.416,2.416v4.832
		c0,1.359-1.057,2.416-2.416,2.416H397.29z"/>
	<path fill="#282828" d="M447.421,2.567v4.832c0,1.359-1.057,2.416-2.416,2.416h-6.795v62.666c0,1.208-1.057,2.416-2.416,2.416
		h-4.832c-1.359,0-2.416-1.208-2.416-2.416V9.815h-6.795c-1.359,0-2.416-1.057-2.416-2.416V2.567c0-1.359,1.057-2.416,2.416-2.416
		h23.254C446.365,0.151,447.421,1.208,447.421,2.567z"/>
</g>
<g>
	<linearGradient id="SVGID_1_" gradientUnits="userSpaceOnUse" x1="7.2134" y1="82.3589" x2="7.2134" y2="115.5244">
		<stop  offset="0" style="stop-color:#303030"/>
		<stop  offset="1" style="stop-color:#1A1A1A"/>
	</linearGradient>
	<path fill="url(#SVGID_1_)" d="M14.918,93.28c0,2.211-0.871,4.221-2.346,5.628c1.475,1.407,2.346,3.35,2.346,5.561v9.983
		c0,0.536-0.469,1.072-1.072,1.072h-2.144c-0.604,0-1.072-0.536-1.072-1.072v-9.983c0-1.876-1.541-3.417-3.417-3.417H3.796v13.4
		c0,0.536-0.536,1.072-1.072,1.072H0.58c-0.603,0-1.071-0.536-1.071-1.072V84.503c0-1.206,0.938-2.144,2.144-2.144h5.562
		c4.288,0,7.705,3.484,7.705,7.705V93.28z M10.63,90.064c0-1.876-1.541-3.417-3.417-3.417H3.796v10.117h3.417
		c1.876,0,3.417-1.541,3.417-3.484V90.064z"/>
	<linearGradient id="SVGID_2_" gradientUnits="userSpaceOnUse" x1="24.7334" y1="82.3589" x2="24.7334" y2="115.5244">
		<stop  offset="0" style="stop-color:#303030"/>
		<stop  offset="1" style="stop-color:#1A1A1A"/>
	</linearGradient>
	<path fill="url(#SVGID_2_)" d="M23.427,86.647v10.117h5.829c0.603,0,1.071,0.469,1.071,1.072v2.144
		c0,0.603-0.469,1.072-1.071,1.072h-5.829v10.184h5.829c0.603,0,1.071,0.469,1.071,1.072v2.144c0,0.603-0.469,1.072-1.071,1.072
		h-7.974c-1.206,0-2.144-1.005-2.144-2.144V84.503c0-1.206,0.938-2.144,2.144-2.144h7.974c0.603,0,1.071,0.469,1.071,1.072v2.144
		c0,0.603-0.469,1.072-1.071,1.072H23.427z"/>
	<linearGradient id="SVGID_3_" gradientUnits="userSpaceOnUse" x1="39.5747" y1="82.3589" x2="39.5747" y2="115.5244">
		<stop  offset="0" style="stop-color:#303030"/>
		<stop  offset="1" style="stop-color:#1A1A1A"/>
	</linearGradient>
	<path fill="url(#SVGID_3_)" d="M42.992,92.342v-2.278c0-1.876-1.541-3.417-3.417-3.417s-3.417,1.541-3.417,3.417
		c0,0.871,0,0.871,0.2,1.139l9.313,12.328c1.608,2.144,1.608,2.144,1.608,4.288c0,4.221-3.484,7.705-7.705,7.705
		c-4.222,0-7.705-3.484-7.705-7.705v-2.278c0-0.603,0.469-1.072,1.071-1.072h2.145c0.603,0,1.072,0.469,1.072,1.072v2.278
		c0,1.876,1.541,3.417,3.417,3.417s3.417-1.541,3.417-3.417c0-0.871,0-0.871-0.201-1.139l-9.313-12.328
		c-1.607-2.144-1.607-2.144-1.607-4.288c0-4.221,3.483-7.705,7.705-7.705c4.221,0,7.705,3.484,7.705,7.705v2.278
		c0,0.603-0.47,1.072-1.072,1.072h-2.145C43.46,93.414,42.992,92.945,42.992,92.342z"/>
	<linearGradient id="SVGID_4_" gradientUnits="userSpaceOnUse" x1="58.5688" y1="82.3589" x2="58.5688" y2="115.5244">
		<stop  offset="0" style="stop-color:#303030"/>
		<stop  offset="1" style="stop-color:#1A1A1A"/>
	</linearGradient>
	<path fill="url(#SVGID_4_)" d="M66.307,90.064v17.688c0,4.288-3.483,7.772-7.705,7.772c-4.288,0-7.771-3.484-7.771-7.772V90.064
		c0-4.221,3.483-7.705,7.771-7.705C62.824,82.359,66.307,85.843,66.307,90.064z M62.019,90.064c0-1.876-1.541-3.417-3.417-3.417
		c-1.942,0-3.483,1.541-3.483,3.417v17.688c0,1.943,1.541,3.484,3.483,3.484c1.876,0,3.417-1.541,3.417-3.484V90.064z"/>
	<linearGradient id="SVGID_5_" gradientUnits="userSpaceOnUse" x1="76.0889" y1="82.3589" x2="76.0889" y2="115.5244">
		<stop  offset="0" style="stop-color:#303030"/>
		<stop  offset="1" style="stop-color:#1A1A1A"/>
	</linearGradient>
	<path fill="url(#SVGID_5_)" d="M81.65,112.309v2.144c0,0.536-0.469,1.072-1.072,1.072h-7.906c-1.206,0-2.144-1.005-2.144-2.144
		v-29.95c0-0.603,0.469-1.072,1.071-1.072h2.145c0.536,0,1.072,0.469,1.072,1.072v27.806h5.762
		C81.181,111.236,81.65,111.706,81.65,112.309z"/>
	<linearGradient id="SVGID_6_" gradientUnits="userSpaceOnUse" x1="90.9292" y1="82.3589" x2="90.9292" y2="115.5244">
		<stop  offset="0" style="stop-color:#303030"/>
		<stop  offset="1" style="stop-color:#1A1A1A"/>
	</linearGradient>
	<path fill="url(#SVGID_6_)" d="M98.667,83.431v24.322c0,4.288-3.483,7.772-7.705,7.772c-4.288,0-7.771-3.484-7.771-7.772V83.431
		c0-0.603,0.536-1.072,1.071-1.072h2.145c0.603,0,1.072,0.469,1.072,1.072v24.322c0,1.943,1.541,3.484,3.483,3.484
		c1.876,0,3.417-1.541,3.417-3.484V83.431c0-0.603,0.47-1.072,1.072-1.072h2.145C98.199,82.359,98.667,82.828,98.667,83.431z"/>
	<linearGradient id="SVGID_7_" gradientUnits="userSpaceOnUse" x1="108.4492" y1="82.3589" x2="108.4492" y2="115.5244">
		<stop  offset="0" style="stop-color:#303030"/>
		<stop  offset="1" style="stop-color:#1A1A1A"/>
	</linearGradient>
	<path fill="url(#SVGID_7_)" d="M114.68,83.431v2.144c0,0.603-0.469,1.072-1.072,1.072h-3.015v27.805
		c0,0.536-0.47,1.072-1.072,1.072h-2.144c-0.604,0-1.072-0.536-1.072-1.072V86.647h-3.016c-0.603,0-1.071-0.469-1.071-1.072v-2.144
		c0-0.603,0.469-1.072,1.071-1.072h10.318C114.211,82.359,114.68,82.828,114.68,83.431z"/>
	<linearGradient id="SVGID_8_" gradientUnits="userSpaceOnUse" x1="119.3701" y1="82.3589" x2="119.3701" y2="115.5244">
		<stop  offset="0" style="stop-color:#303030"/>
		<stop  offset="1" style="stop-color:#1A1A1A"/>
	</linearGradient>
	<path fill="url(#SVGID_8_)" d="M121.514,114.452c0,0.603-0.47,1.072-1.072,1.072h-2.145c-0.603,0-1.071-0.469-1.071-1.072V83.431
		c0-0.603,0.469-1.072,1.071-1.072h2.145c0.536,0,1.072,0.469,1.072,1.072V114.452z"/>
	<linearGradient id="SVGID_9_" gradientUnits="userSpaceOnUse" x1="133.4722" y1="82.3589" x2="133.4722" y2="115.5244">
		<stop  offset="0" style="stop-color:#303030"/>
		<stop  offset="1" style="stop-color:#1A1A1A"/>
	</linearGradient>
	<path fill="url(#SVGID_9_)" d="M141.21,90.064v17.688c0,4.288-3.483,7.772-7.705,7.772c-4.288,0-7.771-3.484-7.771-7.772V90.064
		c0-4.221,3.483-7.705,7.771-7.705C137.727,82.359,141.21,85.843,141.21,90.064z M136.922,90.064c0-1.876-1.541-3.417-3.417-3.417
		c-1.942,0-3.483,1.541-3.483,3.417v17.688c0,1.943,1.541,3.484,3.483,3.484c1.876,0,3.417-1.541,3.417-3.484V90.064z"/>
	<linearGradient id="SVGID_10_" gradientUnits="userSpaceOnUse" x1="153.1704" y1="82.3589" x2="153.1704" y2="115.5244">
		<stop  offset="0" style="stop-color:#303030"/>
		<stop  offset="1" style="stop-color:#1A1A1A"/>
	</linearGradient>
	<path fill="url(#SVGID_10_)" d="M160.909,90.064v24.388c0,0.536-0.469,1.072-1.071,1.072h-2.145c-0.603,0-1.072-0.536-1.072-1.072
		V90.064c0-1.876-1.541-3.417-3.417-3.417c-1.942,0-3.483,1.541-3.483,3.417v24.388c0,0.536-0.47,1.072-1.072,1.072h-2.145
		c-0.603,0-1.071-0.536-1.071-1.072V90.064c0-4.221,3.483-7.705,7.771-7.705C157.425,82.359,160.909,85.843,160.909,90.064z"/>
	<linearGradient id="SVGID_11_" gradientUnits="userSpaceOnUse" x1="175.582" y1="82.3589" x2="175.582" y2="115.5244">
		<stop  offset="0" style="stop-color:#303030"/>
		<stop  offset="1" style="stop-color:#1A1A1A"/>
	</linearGradient>
	<path fill="url(#SVGID_11_)" d="M177.726,114.452c0,0.603-0.47,1.072-1.072,1.072h-2.145c-0.603,0-1.071-0.469-1.071-1.072V83.431
		c0-0.603,0.469-1.072,1.071-1.072h2.145c0.536,0,1.072,0.469,1.072,1.072V114.452z"/>
	<linearGradient id="SVGID_12_" gradientUnits="userSpaceOnUse" x1="189.6841" y1="82.3589" x2="189.6841" y2="115.5244">
		<stop  offset="0" style="stop-color:#303030"/>
		<stop  offset="1" style="stop-color:#1A1A1A"/>
	</linearGradient>
	<path fill="url(#SVGID_12_)" d="M197.422,90.064v24.388c0,0.536-0.469,1.072-1.071,1.072h-2.145c-0.603,0-1.072-0.536-1.072-1.072
		V90.064c0-1.876-1.541-3.417-3.417-3.417c-1.942,0-3.483,1.541-3.483,3.417v24.388c0,0.536-0.47,1.072-1.072,1.072h-2.145
		c-0.603,0-1.071-0.536-1.071-1.072V90.064c0-4.221,3.483-7.705,7.771-7.705C193.939,82.359,197.422,85.843,197.422,90.064z"/>
	<linearGradient id="SVGID_13_" gradientUnits="userSpaceOnUse" x1="209.3813" y1="82.3589" x2="209.3813" y2="115.5244">
		<stop  offset="0" style="stop-color:#303030"/>
		<stop  offset="1" style="stop-color:#1A1A1A"/>
	</linearGradient>
	<path fill="url(#SVGID_13_)" d="M217.12,90.131v17.622c0,4.288-3.417,7.772-7.705,7.772h-5.628c-1.139,0-2.144-1.005-2.144-2.144
		V84.503c0-1.206,1.005-2.144,2.144-2.144h5.628C213.703,82.359,217.12,85.843,217.12,90.131z M212.832,90.131
		c0-1.943-1.541-3.484-3.417-3.484h-3.483v24.522h3.483c1.876,0,3.417-1.541,3.417-3.417V90.131z"/>
	<linearGradient id="SVGID_14_" gradientUnits="userSpaceOnUse" x1="226.9355" y1="82.3589" x2="226.9355" y2="115.5244">
		<stop  offset="0" style="stop-color:#303030"/>
		<stop  offset="1" style="stop-color:#1A1A1A"/>
	</linearGradient>
	<path fill="url(#SVGID_14_)" d="M225.629,86.647v10.117h5.829c0.603,0,1.071,0.469,1.071,1.072v2.144
		c0,0.603-0.469,1.072-1.071,1.072h-5.829v10.184h5.829c0.603,0,1.071,0.469,1.071,1.072v2.144c0,0.603-0.469,1.072-1.071,1.072
		h-7.974c-1.206,0-2.144-1.005-2.144-2.144V84.503c0-1.206,0.938-2.144,2.144-2.144h7.974c0.603,0,1.071,0.469,1.071,1.072v2.144
		c0,0.603-0.469,1.072-1.071,1.072H225.629z"/>
	<linearGradient id="SVGID_15_" gradientUnits="userSpaceOnUse" x1="244.4897" y1="82.3589" x2="244.4897" y2="115.5244">
		<stop  offset="0" style="stop-color:#303030"/>
		<stop  offset="1" style="stop-color:#1A1A1A"/>
	</linearGradient>
	<path fill="url(#SVGID_15_)" d="M252.228,90.064v3.216c0,4.288-3.483,7.772-7.705,7.772h-3.483v13.4
		c0,0.536-0.47,1.072-1.072,1.072h-2.145c-0.535,0-1.071-0.536-1.071-1.072v-13.4v-4.288V83.431c0-0.603,0.536-1.072,1.071-1.072
		h6.7C248.745,82.359,252.228,85.843,252.228,90.064z M247.94,90.064c0-1.876-1.541-3.417-3.417-3.417h-3.483v10.117h3.483
		c1.876,0,3.417-1.541,3.417-3.484V90.064z"/>
	<linearGradient id="SVGID_16_" gradientUnits="userSpaceOnUse" x1="260.6357" y1="82.3589" x2="260.6357" y2="115.5244">
		<stop  offset="0" style="stop-color:#303030"/>
		<stop  offset="1" style="stop-color:#1A1A1A"/>
	</linearGradient>
	<path fill="url(#SVGID_16_)" d="M259.33,86.647v10.117h5.829c0.603,0,1.071,0.469,1.071,1.072v2.144
		c0,0.603-0.469,1.072-1.071,1.072h-5.829v10.184h5.829c0.603,0,1.071,0.469,1.071,1.072v2.144c0,0.603-0.469,1.072-1.071,1.072
		h-7.974c-1.206,0-2.144-1.005-2.144-2.144V84.503c0-1.206,0.938-2.144,2.144-2.144h7.974c0.603,0,1.071,0.469,1.071,1.072v2.144
		c0,0.603-0.469,1.072-1.071,1.072H259.33z"/>
	<linearGradient id="SVGID_17_" gradientUnits="userSpaceOnUse" x1="278.1899" y1="82.3589" x2="278.1899" y2="115.5244">
		<stop  offset="0" style="stop-color:#303030"/>
		<stop  offset="1" style="stop-color:#1A1A1A"/>
	</linearGradient>
	<path fill="url(#SVGID_17_)" d="M285.928,90.064v24.388c0,0.536-0.469,1.072-1.071,1.072h-2.145c-0.603,0-1.072-0.536-1.072-1.072
		V90.064c0-1.876-1.541-3.417-3.417-3.417c-1.942,0-3.483,1.541-3.483,3.417v24.388c0,0.536-0.47,1.072-1.072,1.072h-2.145
		c-0.603,0-1.071-0.536-1.071-1.072V90.064c0-4.221,3.483-7.705,7.771-7.705C282.445,82.359,285.928,85.843,285.928,90.064z"/>
	<linearGradient id="SVGID_18_" gradientUnits="userSpaceOnUse" x1="297.8882" y1="82.3589" x2="297.8882" y2="115.5244">
		<stop  offset="0" style="stop-color:#303030"/>
		<stop  offset="1" style="stop-color:#1A1A1A"/>
	</linearGradient>
	<path fill="url(#SVGID_18_)" d="M305.626,90.131v17.622c0,4.288-3.417,7.772-7.705,7.772h-5.628c-1.139,0-2.144-1.005-2.144-2.144
		V84.503c0-1.206,1.005-2.144,2.144-2.144h5.628C302.209,82.359,305.626,85.843,305.626,90.131z M301.338,90.131
		c0-1.943-1.541-3.484-3.417-3.484h-3.483v24.522h3.483c1.876,0,3.417-1.541,3.417-3.417V90.131z"/>
	<linearGradient id="SVGID_19_" gradientUnits="userSpaceOnUse" x1="315.4414" y1="82.3589" x2="315.4414" y2="115.5244">
		<stop  offset="0" style="stop-color:#303030"/>
		<stop  offset="1" style="stop-color:#1A1A1A"/>
	</linearGradient>
	<path fill="url(#SVGID_19_)" d="M314.135,86.647v10.117h5.829c0.603,0,1.071,0.469,1.071,1.072v2.144
		c0,0.603-0.469,1.072-1.071,1.072h-5.829v10.184h5.829c0.603,0,1.071,0.469,1.071,1.072v2.144c0,0.603-0.469,1.072-1.071,1.072
		h-7.974c-1.206,0-2.144-1.005-2.144-2.144V84.503c0-1.206,0.938-2.144,2.144-2.144h7.974c0.603,0,1.071,0.469,1.071,1.072v2.144
		c0,0.603-0.469,1.072-1.071,1.072H314.135z"/>
	<linearGradient id="SVGID_20_" gradientUnits="userSpaceOnUse" x1="332.9956" y1="82.3589" x2="332.9956" y2="115.5244">
		<stop  offset="0" style="stop-color:#303030"/>
		<stop  offset="1" style="stop-color:#1A1A1A"/>
	</linearGradient>
	<path fill="url(#SVGID_20_)" d="M340.734,90.064v24.388c0,0.536-0.469,1.072-1.071,1.072h-2.145c-0.603,0-1.072-0.536-1.072-1.072
		V90.064c0-1.876-1.541-3.417-3.417-3.417c-1.942,0-3.483,1.541-3.483,3.417v24.388c0,0.536-0.47,1.072-1.072,1.072h-2.145
		c-0.603,0-1.071-0.536-1.071-1.072V90.064c0-4.221,3.483-7.705,7.771-7.705C337.25,82.359,340.734,85.843,340.734,90.064z"/>
	<linearGradient id="SVGID_21_" gradientUnits="userSpaceOnUse" x1="348.5059" y1="82.3589" x2="348.5059" y2="115.5244">
		<stop  offset="0" style="stop-color:#303030"/>
		<stop  offset="1" style="stop-color:#1A1A1A"/>
	</linearGradient>
	<path fill="url(#SVGID_21_)" d="M354.737,83.431v2.144c0,0.603-0.469,1.072-1.072,1.072h-3.015v27.805
		c0,0.536-0.47,1.072-1.072,1.072h-2.144c-0.604,0-1.072-0.536-1.072-1.072V86.647h-3.016c-0.603,0-1.071-0.469-1.071-1.072v-2.144
		c0-0.603,0.469-1.072,1.071-1.072h10.318C354.268,82.359,354.737,82.828,354.737,83.431z"/>
	<linearGradient id="SVGID_22_" gradientUnits="userSpaceOnUse" x1="368.7393" y1="82.3589" x2="368.7393" y2="115.5244">
		<stop  offset="0" style="stop-color:#303030"/>
		<stop  offset="1" style="stop-color:#1A1A1A"/>
	</linearGradient>
	<path fill="url(#SVGID_22_)" d="M370.883,114.452c0,0.603-0.47,1.072-1.072,1.072h-2.145c-0.603,0-1.071-0.469-1.071-1.072V83.431
		c0-0.603,0.469-1.072,1.071-1.072h2.145c0.536,0,1.072,0.469,1.072,1.072V114.452z"/>
	<linearGradient id="SVGID_23_" gradientUnits="userSpaceOnUse" x1="382.8091" y1="82.3589" x2="382.8091" y2="115.5244">
		<stop  offset="0" style="stop-color:#303030"/>
		<stop  offset="1" style="stop-color:#1A1A1A"/>
	</linearGradient>
	<path fill="url(#SVGID_23_)" d="M386.226,92.342v-2.278c0-1.876-1.541-3.417-3.417-3.417s-3.417,1.541-3.417,3.417v17.755
		c0,1.876,1.541,3.417,3.417,3.417s3.417-1.541,3.417-3.417v-2.479c0-0.603,0.469-1.072,1.072-1.072h2.144
		c0.604,0,1.072,0.469,1.072,1.072v2.479c0,4.221-3.484,7.705-7.705,7.705c-4.288,0-7.705-3.484-7.705-7.705V90.064
		c0-4.221,3.417-7.705,7.705-7.705c4.221,0,7.705,3.484,7.705,7.705v2.278c0,0.603-0.469,1.072-1.072,1.072h-2.144
		C386.695,93.414,386.226,92.945,386.226,92.342z"/>
	<linearGradient id="SVGID_24_" gradientUnits="userSpaceOnUse" x1="401.8022" y1="82.3589" x2="401.8022" y2="115.5244">
		<stop  offset="0" style="stop-color:#303030"/>
		<stop  offset="1" style="stop-color:#1A1A1A"/>
	</linearGradient>
	<path fill="url(#SVGID_24_)" d="M409.541,90.064v17.688c0,4.288-3.483,7.772-7.705,7.772c-4.288,0-7.771-3.484-7.771-7.772V90.064
		c0-4.221,3.483-7.705,7.771-7.705C406.057,82.359,409.541,85.843,409.541,90.064z M405.252,90.064c0-1.876-1.541-3.417-3.417-3.417
		c-1.942,0-3.483,1.541-3.483,3.417v17.688c0,1.943,1.541,3.484,3.483,3.484c1.876,0,3.417-1.541,3.417-3.484V90.064z"/>
	<linearGradient id="SVGID_25_" gradientUnits="userSpaceOnUse" x1="421.5005" y1="82.3589" x2="421.5005" y2="115.5244">
		<stop  offset="0" style="stop-color:#303030"/>
		<stop  offset="1" style="stop-color:#1A1A1A"/>
	</linearGradient>
	<path fill="url(#SVGID_25_)" d="M429.239,90.064v24.388c0,0.536-0.469,1.072-1.071,1.072h-2.145c-0.603,0-1.072-0.536-1.072-1.072
		V90.064c0-1.876-1.541-3.417-3.417-3.417c-1.942,0-3.483,1.541-3.483,3.417v24.388c0,0.536-0.47,1.072-1.072,1.072h-2.145
		c-0.603,0-1.071-0.536-1.071-1.072V90.064c0-4.221,3.483-7.705,7.771-7.705C425.755,82.359,429.239,85.843,429.239,90.064z"/>
	<linearGradient id="SVGID_26_" gradientUnits="userSpaceOnUse" x1="440.4946" y1="82.3589" x2="440.4946" y2="115.5244">
		<stop  offset="0" style="stop-color:#303030"/>
		<stop  offset="1" style="stop-color:#1A1A1A"/>
	</linearGradient>
	<path fill="url(#SVGID_26_)" d="M443.912,92.342v-2.278c0-1.876-1.541-3.417-3.417-3.417s-3.417,1.541-3.417,3.417
		c0,0.871,0,0.871,0.2,1.139l9.313,12.328c1.608,2.144,1.608,2.144,1.608,4.288c0,4.221-3.484,7.705-7.705,7.705
		c-4.222,0-7.705-3.484-7.705-7.705v-2.278c0-0.603,0.469-1.072,1.071-1.072h2.145c0.603,0,1.072,0.469,1.072,1.072v2.278
		c0,1.876,1.541,3.417,3.417,3.417s3.417-1.541,3.417-3.417c0-0.871,0-0.871-0.201-1.139l-9.313-12.328
		c-1.607-2.144-1.607-2.144-1.607-4.288c0-4.221,3.483-7.705,7.705-7.705c4.221,0,7.705,3.484,7.705,7.705v2.278
		c0,0.603-0.47,1.072-1.072,1.072h-2.145C444.38,93.414,443.912,92.945,443.912,92.342z"/>
</g>
</svg>
